<?xml version="1.0" encoding="utf-8"?>
<!-- Generator: Adobe Illustrator 26.3.1, SVG Export Plug-In . SVG Version: 6.00 Build 0)  -->
<svg version="1.1" id="Layer_1" xmlns="http://www.w3.org/2000/svg" xmlns:xlink="http://www.w3.org/1999/xlink" x="0px" y="0px"
	 viewBox="0 0 888.5 592.3" style="enable-background:new 0 0 888.5 592.3;" xml:space="preserve">
<style type="text/css">
	.st0{fill:#A0616A;}
	.st1{opacity:0.1;enable-background:new    ;}
	.st2{fill:#FFF46C;}
	.st3{fill:#F2F2F2;}
	.st4{fill:#E6E6E6;}
	.st5{fill:#CCCCCC;}
	.st6{fill:#2F2E41;}
	.st7{fill:#3F3D56;}
	.st8{fill:#D92B04;}
	.st9{opacity:0.3;enable-background:new    ;}
	.st10{fill:#FFFFFF;}
</style>
<polygon class="st0" points="542.2,435.4 523.7,435.4 525.1,420.2 539.8,420.2 "/>
<polygon class="st1" points="542.2,435.4 523.7,435.4 525.1,420.2 539.8,420.2 "/>
<g>
	<g>
		<circle class="st2" cx="604.3" cy="119.7" r="31.5"/>
		<path class="st3" d="M672.7,317.8c0.1,0.7,0.1,1.4,0,2h-36.5c-0.3-0.7-0.6-1.3-0.9-2c-4.5-12.8,2.9-34.2-6.4-65.8
			c-6.9-23.5-19.8-41.9-25.8-50.4c-7.4-10.5-15.8-20.2-25.5-35.7c-2.1-3.4-4.3-7-6.5-11c-0.8-1.3-9.4-16.7-8.6-17.2
			c0.4-0.2,2.7,2.9,3.4,3.9c6.8,9.3,10.8,13.3,16.5,20c3.5,4,7.6,9,13.3,16.7c14.7,19.7,22,29.5,24.6,36.9
			c0.7,1.9,4.3,12.6,11.1,25.8c3.5,6.7,5.2,10.1,6.1,9.8c2.7-0.8-1-28.6-12.3-56.5c-1.9-4.8-3.4-7.8-6.1-13.5
			c-4.4-9.4-29.4-61.4-47.7-92.5c-2.3-3.9-4.5-7.5-6.5-10.6c-0.4-0.6-0.8-1.2-1.1-1.7c-2.6-3.8-4.8-6.8-6.7-8.7
			c-1-1-3.5-3.9-8.6-9.8c-2-2.3-3.5-4.1-4.5-5.3c-0.2-0.2-0.3-0.4-0.4-0.6c-1.2-1.6-1.6-2.3-1.3-2.8c0.4-0.6,1.9-0.2,3.7,0.4
			c0.2,0,0.4,0.1,0.6,0.2c1.9,0.7,3.8,1.6,4.4,1.9c5.7,2.8,11.4,7.7,16.6,13.6c1.9,2.2,3.8,4.5,5.6,6.8c5.8,7.6,10.8,15.9,14.6,22.8
			c4.7,8.4,7.5,14.6,7.5,14.6c13,28.8,27.5,61.8,28.3,61.5c0.9-0.3-15.2-41.3-19.9-63.6c-1.6-7.5-1.9-12.8,0.2-13.9
			c0.1,0,0.1-0.1,0.2-0.1c0.3-0.1,0.6-0.1,0.8-0.1c0,0,1.9-0.2,3.9,0.2c2.5,0.5,5.3,7.5,8.1,17.2c7.2,25.1,14,68.8,14,68.8
			c6.8,43.7,17.2,79.1,19.7,78.7c1.4-0.2-0.6-11.2,1.2-29.5c1.3-12.8,2.7-12.4,7.4-35.6c7.4-36.8,11.1-55.2,11.1-55.3
			c0-0.8-0.1-2.3,0.1-3.9c0.2-1.8,0.9-3.6,2.4-4.7c2.3-1.6,5.9-0.9,7.4,0c1.2,0.8,1.8,2.1,1.9,4c0.8,12.2-16.7,47.7-22.8,95.5
			c-3,23.8-4.7,36.9,0,54.1C663.7,299.2,671.8,310,672.7,317.8L672.7,317.8z"/>
	</g>
	<path class="st3" d="M633.2,561.3c-0.1,0.7-0.1,1.4,0,2h36.5c0.3-0.7,0.6-1.3,0.9-2c4.5-12.8-2.9-34.2,6.4-65.8
		c6.9-23.5,19.8-41.9,25.8-50.4c7.4-10.5,15.8-20.2,25.5-35.7c2.1-3.4,4.3-7,6.5-11c0.8-1.3,9.4-16.7,8.6-17.2
		c-0.4-0.2-2.7,2.9-3.4,3.9c-6.8,9.3-10.8,13.3-16.5,20c-3.5,4-7.6,9-13.3,16.7c-14.7,19.7-22,29.5-24.6,36.9
		c-0.7,1.9-4.3,12.6-11.1,25.8c-3.5,6.7-5.2,10.1-6.1,9.8c-2.7-0.8,1-28.6,12.3-56.5c1.9-4.8,3.4-7.8,6.1-13.5
		c4.5-9.4,29.4-61.4,47.7-92.5c2.3-3.9,4.5-7.5,6.5-10.6c0.4-0.6,0.8-1.2,1.1-1.7c2.6-3.8,4.8-6.8,6.7-8.7c1-1,3.5-3.9,8.6-9.8
		c2-2.3,3.5-4.1,4.5-5.3c0.1-0.2,0.3-0.4,0.4-0.5c1.2-1.6,1.6-2.3,1.3-2.8c-0.4-0.6-1.9-0.2-3.7,0.4c-0.2,0-0.4,0.1-0.6,0.2
		c-1.9,0.7-3.8,1.6-4.4,1.9c-5.7,2.8-11.4,7.7-16.6,13.6c-1.9,2.2-3.8,4.5-5.6,6.8c-5.8,7.6-10.8,15.9-14.6,22.8
		c-4.7,8.4-7.5,14.6-7.5,14.6c-13,28.8-27.5,61.8-28.3,61.5c-0.9-0.3,15.2-41.3,19.9-63.6c1.6-7.5,1.9-12.8-0.2-13.9
		c-0.1,0-0.1-0.1-0.2-0.1c-0.3-0.1-0.6-0.1-0.8-0.1c0,0-1.9-0.2-3.9,0.2c-2.5,0.5-5.3,7.5-8.1,17.2c-7.2,25-14.1,68.7-14.1,68.7
		c-6.8,43.7-17.2,79.1-19.7,78.7c-1.4-0.2,0.6-11.2-1.2-29.5c-1.3-12.8-2.7-12.4-7.4-35.6c-7.4-36.8-11.1-55.2-11.1-55.3
		c0-0.8,0.1-2.3-0.1-3.9c-0.2-1.8-0.9-3.6-2.4-4.7c-2.3-1.6-5.9-0.9-7.4,0c-1.2,0.8-1.8,2.1-1.9,4c-0.8,12.2,16.7,47.7,22.8,95.5
		c3,23.8,4.7,36.9,0,54.1C642.2,542.7,634.1,553.6,633.2,561.3L633.2,561.3z"/>
	<path class="st4" d="M680.9,562.8L680.9,562.8c0,0.2-0.2,0.4-0.4,0.4H403.9v-0.8h276.6C680.7,562.3,680.9,562.5,680.9,562.8z"/>
	<polygon class="st0" points="515.7,545.8 518.7,559.8 528.5,558.4 525.8,544.1 	"/>
	<polygon class="st0" points="567.9,545.8 564.8,559.8 555,558.4 557.7,544.1 	"/>
	<path class="st5" d="M586.3,513.7l-17.5-53.4c-3.9-12-15.1-20-27.7-20l0,0c-14,0-26,10-28.6,23.7l-9.7,51.3
		c-1.4,7.4,4.1,14.2,11.5,14.4v35.1h2.7v-35.1h56.9v35.1h2.7v-35.2C583.9,528.5,588.7,521,586.3,513.7z"/>
	<path class="st6" d="M550,477.3l-33,1.1c0,0-12.4,22.2,9.5,25.2c21.9,3,41.1-0.3,42-9.7C569.4,484.4,562.5,477.1,550,477.3
		L550,477.3z"/>
	<path class="st6" d="M523.2,479.8c0,0-12.4,1.4-13.5,4.9s-1.6,19-1.6,19l4.9,44.7l13.8-1.6l-3-42.8l16-3.6L523.2,479.8L523.2,479.8
		z"/>
	<path class="st6" d="M520.5,553.4c0,0-4.1-2.7-5.2-1.5c-1.1,1.2-6.7,7.2-6.7,7.2l-10,6.2c0,0-8.6,8.1,3.5,7.8s18.4-3.9,18.4-3.9
		s11.6-0.1,11.4-3.4c-0.3-3.2-4.2-11.8-4.2-11.8L520.5,553.4L520.5,553.4z"/>
	<path class="st6" d="M560.3,479.8c0,0,12.4,1.4,13.5,4.9c1.1,3.5,1.6,19,1.6,19l-4.8,44.7l-13.8-1.6l3-42.8l-16-3.5L560.3,479.8
		L560.3,479.8z"/>
	<path class="st6" d="M563,553.4c0,0,4.1-2.7,5.2-1.5c1.1,1.2,6.7,7.2,6.7,7.2l10,6.2c0,0,8.6,8.1-3.5,7.8
		c-12.2-0.3-18.4-3.9-18.4-3.9s-11.6-0.1-11.4-3.4c0.3-3.2,4.2-11.8,4.2-11.8L563,553.4L563,553.4z"/>
	<path class="st7" d="M540.3,427.5h-15.7l-11.9,5.4l2.7,35.7c0,0-3.4,10.9,0.8,11.5c4.1,0.7,26.9,4.7,33.1,1.2
		c6.2-3.5,11.6-2.4,11.6-2.4l-7.3-47.4L540.3,427.5L540.3,427.5z"/>
	<circle class="st0" cx="532.8" cy="411.4" r="14.6"/>
	<path class="st6" d="M517.8,413.8l2.5,3.3l3.5-4.9c0,0,0.3,4.3,9.8,2.7c9.5-1.6,11.9-2.2,11.9-2.2l1.1,4.9c0,0,1.1-3.2,1.1-5.4
		c0-2.2,6.9-7.3-0.3-11.6s-3.5-8.4-12.4-8.1s-14.5,0-15.3,3.2c-0.9,3.2-2.9,7.3-2.6,10.8C517.4,410,517.8,413.8,517.8,413.8
		L517.8,413.8z"/>
	<path id="uuid-7ddbc389-7cdc-46c2-935f-0ff8b929a928-112" class="st0" d="M545.4,477.9c-3.5,1.2-7,0.3-7.7-1.9s1.5-5,5-6.2
		c1.4-0.5,2.9-0.6,4.4-0.4l15-4.8l2.1,7.1l-15,3.9C548.1,476.7,546.9,477.5,545.4,477.9z"/>
	<g>
		<path id="uuid-04944d89-6e1c-4a13-b790-56aa68a198ee-113" class="st0" d="M476.8,462.1c-3.4-1.6-5.3-4.6-4.3-6.7
			c1-2.1,4.5-2.6,7.9-1.1c1.4,0.6,2.6,1.5,3.5,2.7l14.2,6.7l-3.3,6.6l-13.6-7.4C479.6,463,478.2,462.7,476.8,462.1L476.8,462.1z"/>
		<path class="st7" d="M512.6,432.9c0,0,5.7,2.3,5.5,8.5c-0.2,6.2-4.5,14.7-4.5,14.7s-0.3,19.4-5.6,21.5
			c-5.3,2.1-21.7-11.4-21.7-11.4l3.8-7.2l7.1-0.8L512.6,432.9L512.6,432.9z"/>
	</g>
	<path class="st7" d="M549.5,432.7c0,0,5.7-2.2,9.7,2.4s6.8,13.8,6.8,13.8s13,14.3,10.5,19.5c-2.4,5.1-23.6,6.5-23.6,6.5l-2.2-7.8
		l4.6-5.4L549.5,432.7L549.5,432.7z"/>
	<path class="st8" d="M564.2,486.1H518c-2.6,0-4.7-2.1-4.7-4.7v-26.9c0-2.6,2.1-4.7,4.7-4.7h46.2c2.6,0,4.7,2.1,4.7,4.7v26.9
		C568.9,484,566.8,486.1,564.2,486.1z"/>
	<g>
		<path class="st3" d="M642.9,232.7c-1.1-0.6-2.9,1.9-3.9,1.3c-1-0.6,0.5-3.3,0-7c-0.1-0.7-0.7-5-2.5-5.4
			c-3.3-0.7-7.6,13.3-12.6,12.6c-1.1-0.1-2.3-1-5.7-1.6c-1.3-0.2-2.1-0.2-2.5,0.2c-0.6,0.6-0.1,1.6,0.3,4c0.6,3.6-0.2,3.8,0.5,6.5
			c0.5,2,1.2,2.9,0.8,3.5c-0.7,0.8-2.6-0.5-3.5,0.3c-1,0.8-0.3,3.3,0.4,5c1.4,3.2,3.7,4.4,5.6,6.1c2,1.8,4.5,4.9,5.9,10.6l10.9,50.9
			c-2-10.6-7-39.9-8.4-51.1c-0.4-3.2-0.7-6.6,1.3-9.2c1.9-2.5,5.7-4,9.5-7.8c0.4-0.4,1.6-1.7,1.3-2.6c-0.3-0.8-1.3-0.7-1.6-1.4
			c-0.4-1,1.3-2,2.7-4.2c1-1.6,1.4-3,1.7-4.2C643,238.9,644.4,233.5,642.9,232.7L642.9,232.7L642.9,232.7z"/>
		<path class="st3" d="M598.1,290.6c-0.6,0.4,0.1,2-0.5,2.3c-0.6,0.3-1.5-1.2-3.5-2c-0.4-0.1-2.7-1.1-3.3-0.3
			c-1.3,1.4,4.3,7.6,2.6,9.8c-0.4,0.5-1.1,0.9-2.4,2.3c-0.5,0.6-0.7,1-0.6,1.3c0.1,0.5,0.8,0.5,2,1c1.9,0.8,1.8,1.2,3.3,1.6
			c1.1,0.3,1.8,0.2,1.9,0.6c0.2,0.6-1,1.1-0.9,1.8s1.5,1.1,2.6,1.2c1.9,0.2,3.2-0.5,4.6-1c1.5-0.5,3.7-0.8,6.9,0.1l28.1,9.3
			c-5.8-2.1-21.6-8.1-27.5-10.6c-1.7-0.7-3.4-1.6-4.1-3.3c-0.7-1.7-0.3-4-1.1-6.9c-0.1-0.3-0.3-1.3-0.9-1.4
			c-0.5-0.1-0.7,0.5-1.1,0.4c-0.6-0.1-0.6-1.2-1.3-2.6c-0.5-1-1-1.5-1.6-2C601.2,292.3,599,290,598.1,290.6L598.1,290.6L598.1,290.6
			z"/>
		<path class="st3" d="M612.4,285.7l-2.5-3.1v-0.4c0-1.7-0.2-3.1-0.9-4.2c-0.1-0.2-0.2-0.3-0.3-0.5c-0.5-0.7-1-1.5-1.2-2.9
			c-0.1-0.7-0.2-2.5,1-3c0.3-0.1,0.6-0.1,0.9-0.1c0,0,0-0.1,0-0.2c0-0.7,0.1-1.1,0.3-1.5c0.1-0.3,0.2-0.6,0.3-1.2c0-0.2,0-0.5,0-0.7
			c0-0.6,0.1-1.2,0.8-1.6c0.7-0.4,1.4,0,1.9,0.2c0.9,0.4,1.3,0.8,1.7,1c0.1,0.1,0.2,0.2,0.3,0.2c0.4,0.2,2-1.2,2.7-1.8
			c1.4-1.2,2.6-2.2,3.7-1.6c0.8,0.4,1.1,1.5,0.8,3.3c-0.1,0.6-0.2,1-0.4,1.4c0.3,0,0.7,0.1,1,0.4l0,0c0.7,0.7,0.5,1.9-0.6,3.7
			c-0.3,0.4-0.6,1-1.3,1.6c-0.3,0.3-0.6,0.5-0.9,0.7c0.1,0.1,0.1,0.3,0.2,0.6c0,0.7-0.4,1.3-1.3,1.8c-1,0.5-1.9,0.9-2.7,1.1
			c-0.7,0.2-1.3,0.4-1.7,0.7c-0.7,0.5-1,1.5-1.1,2.8L612.4,285.7L612.4,285.7L612.4,285.7z"/>
		<path class="st3" d="M601.7,264.5l-2.4,3.2l-0.3,0.1c-1.6,0.4-2.9,1-3.8,1.9c-0.1,0.1-0.3,0.3-0.4,0.5c-0.5,0.6-1.2,1.4-2.4,1.9
			c-0.7,0.3-2.4,0.8-3.1-0.2c-0.2-0.3-0.3-0.6-0.3-0.8c0,0-0.1,0-0.1,0c-0.7,0.1-1.1,0.1-1.5,0.1c-0.3,0-0.6,0-1.2,0
			c-0.2,0-0.5,0.1-0.7,0.1c-0.6,0.1-1.2,0.2-1.8-0.3c-0.6-0.6-0.4-1.4-0.3-1.9c0.2-0.9,0.4-1.5,0.6-1.9c0-0.1,0.1-0.3,0.1-0.3
			c0.1-0.5-1.7-1.7-2.4-2.1c-1.5-1-2.8-1.9-2.5-3.1c0.2-0.9,1.2-1.4,3-1.6c0.6,0,1,0,1.5,0c-0.1-0.3-0.1-0.7,0.1-1l0,0
			c0.5-0.9,1.8-1,3.8-0.4c0.5,0.1,1.2,0.3,1.9,0.9c0.3,0.2,0.6,0.5,0.9,0.7c0.1-0.1,0.3-0.2,0.5-0.3c0.7-0.2,1.3,0,2,0.8
			c0.8,0.8,1.3,1.6,1.8,2.3c0.4,0.6,0.8,1.1,1.1,1.5c0.7,0.6,1.7,0.5,2.9,0.4L601.7,264.5L601.7,264.5L601.7,264.5z"/>
		<path class="st3" d="M593.9,255.7l-2.5-3.1v-0.4c0-1.7-0.2-3.1-0.9-4.2c-0.1-0.2-0.2-0.3-0.3-0.5c-0.5-0.7-1-1.5-1.2-2.9
			c-0.1-0.7-0.2-2.5,1-3c0.3-0.1,0.6-0.1,0.9-0.1c0,0,0-0.1,0-0.2c0-0.7,0.1-1.1,0.3-1.5c0.1-0.3,0.2-0.6,0.3-1.2c0-0.2,0-0.5,0-0.7
			c0-0.6,0.1-1.2,0.8-1.6c0.7-0.4,1.4,0,1.9,0.2c0.9,0.4,1.3,0.8,1.7,1c0.1,0.1,0.2,0.2,0.3,0.2c0.4,0.2,2-1.2,2.7-1.8
			c1.4-1.2,2.6-2.2,3.7-1.6c0.8,0.4,1.1,1.5,0.8,3.3c-0.1,0.6-0.2,1-0.4,1.4c0.3,0,0.7,0.1,1,0.4l0,0c0.7,0.7,0.5,1.9-0.6,3.7
			c-0.3,0.4-0.6,1-1.3,1.6c-0.3,0.3-0.6,0.5-0.9,0.7c0.1,0.1,0.1,0.3,0.2,0.6c0,0.7-0.4,1.3-1.3,1.8c-1,0.5-1.9,0.9-2.7,1.1
			c-0.7,0.2-1.3,0.4-1.7,0.7c-0.7,0.5-1,1.5-1.1,2.8L593.9,255.7L593.9,255.7L593.9,255.7z"/>
		<path class="st3" d="M637.7,319h-1l-0.7-0.7l0.7,0.7l-0.8,0.6c0,0-0.2-0.2-0.4-0.4c-1.3-1.3-5.2-5.2-10.6-11.8
			c-3.8-4.7-7.3-9.6-10.6-14.7c-3.3-5.1-5.5-9.2-7.2-12.5c-1.3-2.5-2.5-4.8-3.7-7.2c-3.2-6.2-6.2-12.1-10.3-18
			c-0.9-1.3-2.9-4.1-6.4-6.1c-2-1.2-4.4-1.9-6.8-2.2l0.2-1.9c2.8,0.3,5.3,1.1,7.6,2.5c3.9,2.2,6,5.3,7,6.7c4.2,6.1,7.2,12,10.5,18.2
			c1.2,2.3,2.4,4.7,3.7,7.1c1.7,3.2,3.9,7.3,7.1,12.4c3.2,5.1,6.7,10,10.5,14.5c5.3,6.6,9.2,10.4,10.5,11.6
			C637.5,318.4,637.7,318.6,637.7,319L637.7,319L637.7,319z"/>
		<path class="st3" d="M578.3,251c0,0-0.1,0.1-0.2,0.1c-1.5,0.8-3.3,0.8-5.5-0.1c-1-0.4-1.8-1.1-3.4-2.5c-0.2-0.2-1.5-1.3-2.9-3
			c-0.9-1.1-1.2-1.6-1.2-2.2c0-0.7,0.2-1.3,0.5-1.8c-0.1-0.1-0.2-0.3-0.2-0.5c-0.1-0.9,0.7-1.2,1.1-1.5c0.2-0.1,0.5-0.2,0.8-0.4
			c0.4-0.3,0.6-0.6,0.8-1c0.2-0.4,0.5-0.9,1-1.4c1.1-1,2.3-1.3,2.8-1.4c2.2-0.5,3.9,0.3,5.9,1.3c0.4,0.2,1.9,1,3.3,2.3
			c1,1,1.3,1.5,1.5,1.9c0.3,0.9,0.1,1.7-0.5,3.4c-0.6,1.9-1,2.8-1.3,3.4C579.9,249.4,579.4,250.4,578.3,251L578.3,251L578.3,251z"/>
	</g>
	<g>
		<path class="st7" d="M453.5,459l12.8-3l0.9,2.7l6.2-1.7l4.1-1.1l3.9-7.7l-2.8-8.2l-8.4-0.1l-2.6,0.5l-7.1,1.4l0,0
			c-0.6,1-0.3,2.3,0.7,2.9l0.3,0.2l-10.1,1.8C451.6,446.7,448.3,452.4,453.5,459z"/>
		<polygon class="st6" points="467.7,440.5 473.4,457 477.5,455.9 481.4,448.2 478.6,440 470.2,439.9 		"/>
		
			<ellipse transform="matrix(0.9764 -0.2161 0.2161 0.9764 -84.1594 110.9605)" class="st7" cx="465.3" cy="440.3" rx="1.6" ry="0.8"/>
	</g>
	<g>
		<path class="st6" d="M666.3,564.3l-6.1-13l0,0v-16.9h-5.5v16.9l0,0l-6.1,13.3c-0.2,0.3,0,0.7,0.2,0.9c0.3,0.1,0.6,0.1,0.8-0.1
			l6.3-7.4l1,6.7c0,0.4,0.4,0.6,0.7,0.6s0.6-0.3,0.6-0.6l1-6.6l6.1,6.9c0.2,0.3,0.7,0.3,1,0C666.4,564.9,666.5,564.6,666.3,564.3
			L666.3,564.3z"/>
		<path class="st8" d="M622.5,515.6c-1,6.5,13.2,17.9,34,21c20.9,3.1,41.2-1.4,42.2-7.9s-15.3-13.1-36.1-16.2
			C641.7,509.3,623.4,509.1,622.5,515.6L622.5,515.6z"/>
		<path class="st9" d="M622.5,515.6c-1,6.5,13.2,17.9,34,21c20.9,3.1,41.2-1.4,42.2-7.9s-15.3-13.1-36.1-16.2
			C641.7,509.3,623.4,509.1,622.5,515.6L622.5,515.6z"/>
		<path class="st8" d="M623.3,514.6c-0.8,5.3,13,14.5,33.9,17.6c20.9,3.1,41,0.9,41.8-4.4c0.8-5.3-15.4-12.2-36.3-15.3
			C641.8,509.4,624.1,509.3,623.3,514.6z"/>
	</g>
	<g>
		<path class="st10" d="M670.5,435.4h-77.9c-3.1,0-5.7-2.6-5.7-5.7v-58.9c0-3.1,2.6-5.7,5.7-5.7h77.9c3.1,0,5.7,2.6,5.7,5.7v58.9
			C676.2,432.9,673.7,435.4,670.5,435.4z"/>
		<path class="st7" d="M670.5,435.4h-77.9c-3.1,0-5.7-2.6-5.7-5.7v-58.9c0-3.1,2.6-5.7,5.7-5.7h77.9c3.1,0,5.7,2.6,5.7,5.7v58.9
			C676.2,432.9,673.7,435.4,670.5,435.4z M592.6,366.1c-2.6,0-4.8,2.1-4.8,4.8v58.9c0,2.6,2.1,4.8,4.8,4.8h77.9
			c2.6,0,4.8-2.1,4.8-4.8v-58.9c0-2.6-2.1-4.8-4.8-4.8H592.6L592.6,366.1z"/>
		<circle class="st7" cx="662" cy="370.8" r="1.4"/>
		<circle class="st7" cx="665.8" cy="370.8" r="1.4"/>
		<circle class="st7" cx="669.6" cy="370.8" r="1.4"/>
		<path class="st4" d="M595,393.9c-0.4,0-0.7,0.3-0.7,0.7c0,0.2,0.1,0.4,0.2,0.5c0.1,0.1,0.3,0.2,0.5,0.2h73.6
			c0.4,0,0.7-0.3,0.7-0.7c0-0.2-0.1-0.4-0.2-0.5c-0.1-0.1-0.3-0.2-0.5-0.2H595z"/>
		<path class="st8" d="M655.3,393.6v1.9H595c-0.2,0-0.5-0.1-0.7-0.3c-0.2-0.2-0.3-0.4-0.3-0.7c0-0.5,0.4-1,1-1H655.3z"/>
		<path class="st4" d="M667.4,390.1h-9.5c-1,0-1.9-0.9-1.9-1.9s0.9-1.9,1.9-1.9h9.5c1,0,1.9,0.9,1.9,1.9S668.5,390.1,667.4,390.1z"
			/>
		<path class="st4" d="M605.2,380.1h-9.5c-1,0-1.9-0.9-1.9-1.9c0-1,0.9-1.9,1.9-1.9h9.5c1,0,1.9,0.9,1.9,1.9
			C607.1,379.2,606.2,380.1,605.2,380.1z"/>
		<path class="st4" d="M595,415.2c-0.4,0-0.7,0.3-0.7,0.7c0,0.2,0.1,0.4,0.2,0.5c0.1,0.1,0.3,0.2,0.5,0.2h73.6
			c0.4,0,0.7-0.3,0.7-0.7c0-0.2-0.1-0.4-0.2-0.5c-0.1-0.1-0.3-0.2-0.5-0.2H595z"/>
		<path class="st8" d="M618.7,415v1.9H595c-0.2,0-0.5-0.1-0.7-0.3c-0.2-0.2-0.3-0.4-0.3-0.7c0-0.5,0.4-1,1-1H618.7z"/>
		<path class="st4" d="M667.4,411.4h-9.5c-1,0-1.9-0.9-1.9-1.9c0-1,0.9-1.9,1.9-1.9h9.5c1,0,1.9,0.9,1.9,1.9
			C669.3,410.6,668.5,411.4,667.4,411.4z"/>
	</g>
</g>
</svg>
